<svg width="160" height="160" viewBox="0 0 160 160" fill="none" xmlns="http://www.w3.org/2000/svg">
<mask id="mask0" mask-type="alpha" maskUnits="userSpaceOnUse" x="0" y="0" width="160" height="160">
<path d="M80 160C124.183 160 160 124.183 160 80C160 35.8172 124.183 0 80 0C35.8172 0 0 35.8172 0 80C0 124.183 35.8172 160 80 160Z" fill="#EBE5DF"/>
</mask>
<g mask="url(#mask0)">
<path d="M80 160C124.183 160 160 124.183 160 80C160 35.8172 124.183 0 80 0C35.8172 0 0 35.8172 0 80C0 124.183 35.8172 160 80 160Z" fill="#F2EEEB"/>
<path d="M39.5898 15.1633C49.8424 25.4159 49.4889 43.4478 37.4683 55.4684C25.4477 67.489 7.41592 67.8423 -2.8367 57.5897C-13.0893 47.3371 -12.7359 29.3053 -0.715378 17.2846C11.3053 5.26402 29.3371 4.91069 39.5898 15.1633Z" fill="#F2EEEB" stroke="#DF8E45" stroke-width="10"/>
<path d="M138.28 125.786C141.981 150.845 122.729 175.199 94.1934 179.414C65.657 183.628 40.1869 165.878 36.4862 140.82C32.7855 115.761 52.0374 91.4067 80.5737 87.1923C109.11 82.978 134.58 100.728 138.28 125.786Z" fill="#F2EEEB" stroke="#DF8E45" stroke-width="10"/>
<path d="M126.272 128.222C129.03 146.893 114.677 165.233 93.1267 168.416C71.577 171.598 52.5354 158.19 49.7781 139.519C47.0207 120.849 61.3736 102.509 82.9233 99.3258C104.474 96.1432 123.515 109.552 126.272 128.222Z" fill="#F2EEEB" stroke="#ACABAB" stroke-width="10"/>
<path d="M177.814 -20.8662C191.917 -6.76292 191.271 17.8046 175.039 34.0368C158.807 50.269 134.239 50.915 120.136 36.8118C106.033 22.7085 106.679 -1.85898 122.911 -18.0912C139.143 -34.3234 163.711 -34.9694 177.814 -20.8662Z" fill="#EBE5DF" stroke="#DF8E45" stroke-width="10"/>
<path d="M177.814 -20.8662C191.917 -6.76292 191.271 17.8046 175.039 34.0368C158.807 50.269 134.239 50.915 120.136 36.8118C106.033 22.7085 106.679 -1.85898 122.911 -18.0912C139.143 -34.3234 163.711 -34.9694 177.814 -20.8662Z" fill="#F2EEEB" stroke="#DF8E45" stroke-width="10"/>
</g>
</svg>
