<svg width="101" height="92" viewBox="0 0 101 92" fill="none" xmlns="http://www.w3.org/2000/svg">
<rect x="25.2227" y="21" width="2" height="16" rx="1" fill="#ECECEC"/>
<rect x="31.2227" width="2" height="37" rx="1" fill="#ECECEC"/>
<path d="M31.2227 1C31.2227 0.447715 31.6704 0 32.2227 0V0C32.7749 0 33.2227 0.447715 33.2227 1V9H31.2227V1Z" fill="#DF8E45"/>
<rect x="31.2227" y="19" width="2" height="7" fill="#DF8E45"/>
<mask id="mask0" mask-type="alpha" maskUnits="userSpaceOnUse" x="0" y="29" width="101" height="63">
<path d="M50.2219 29C22.6076 29 3.16372 51.5429 0.221887 79C0.13425 79.8179 0.0773811 80.7185 0.0431775 81.6474C-0.150559 86.9091 4.30801 90.994 9.57329 90.9891C20.1444 90.9791 37.531 90.97 50.2219 91C63.14 91.0306 80.4074 91.0214 90.9005 91.0112C96.1539 91.0061 100.592 86.9262 100.402 81.6762C100.368 80.7371 100.31 79.8264 100.222 79C97.2801 51.5429 77.8361 29 50.2219 29Z" fill="#ECECEC"/>
</mask>
<g mask="url(#mask0)">
<path d="M50.2219 29C22.6076 29 3.16372 51.5429 0.221887 79C0.13425 79.8179 0.0773811 80.7185 0.0431775 81.6474C-0.150559 86.9091 4.30801 90.994 9.57329 90.9891C20.1444 90.9791 37.531 90.97 50.2219 91C63.14 91.0306 80.4074 91.0214 90.9005 91.0112C96.1539 91.0061 100.592 86.9262 100.402 81.6762C100.368 80.7371 100.31 79.8264 100.222 79C97.2801 51.5429 77.8361 29 50.2219 29Z" fill="#ECECEC"/>
<rect x="0.222656" y="78" width="100" height="8" fill="#BFBFBF"/>
<rect x="5.22266" y="47" width="90" height="4" fill="#DF8E45"/>
<rect x="5.22266" y="35" width="90" height="6" fill="#BFBFBF"/>
<circle cx="55.7227" cy="57.5" r="11.5" fill="black" stroke="#ECECEC" stroke-width="2"/>
<circle cx="69.7227" cy="69.5" r="6.5" fill="black"/>
<circle cx="69.7227" cy="69.5" r="5.5" fill="black" stroke="#ECECEC"/>
<circle cx="59.7227" cy="52.5" r="1.5" fill="white"/>
</g>
</svg>
