<svg width="2921" height="720" viewBox="0 0 2921 720" fill="none" xmlns="http://www.w3.org/2000/svg">
<path d="M350.156 325C350.156 312.5 348.802 302.604 346.094 295.312C343.385 288.021 338.906 282.5 332.656 278.75C326.406 275 318.177 272.604 307.969 271.562C297.76 270.521 285.156 270 270.156 270H189.844C176.51 270 165.26 270.417 156.094 271.25C147.031 271.979 139.531 273.542 133.594 275.938C127.656 278.333 123.073 281.771 119.844 286.25C116.615 290.729 114.271 296.667 112.812 304.062C111.354 311.458 110.521 320.573 110.312 331.406C110.104 342.135 110 355 110 370C110 385 110.104 397.917 110.312 408.75C110.625 419.479 111.51 428.542 112.969 435.938C114.427 443.333 116.719 449.271 119.844 453.75C123.073 458.229 127.656 461.667 133.594 464.062C139.531 466.458 147.031 468.073 156.094 468.906C165.26 469.635 176.51 470 189.844 470H270.312C281.979 470 292.031 469.688 300.469 469.062C308.906 468.438 316.094 467.292 322.031 465.625C327.969 463.958 332.76 461.667 336.406 458.75C340.052 455.833 342.865 452.188 344.844 447.812C346.927 443.333 348.333 438.021 349.062 431.875C349.792 425.625 350.156 418.333 350.156 410V395H229.844V370H380.156V410C380.156 420 379.531 429.062 378.281 437.188C377.031 445.208 374.792 452.396 371.562 458.75C368.438 465 364.219 470.417 358.906 475C353.594 479.583 346.875 483.385 338.75 486.406C330.625 489.323 320.938 491.458 309.688 492.812C298.438 494.271 285.312 495 270.312 495H189.844C171.51 495 156.042 493.854 143.438 491.562C130.938 489.375 120.625 486.042 112.5 481.562C104.375 476.979 98.0729 471.25 93.5938 464.375C89.2188 457.5 85.9896 449.427 83.9062 440.156C81.9271 430.885 80.7812 420.417 80.4688 408.75C80.1562 397.083 80 384.167 80 370C80 355.833 80.1562 342.917 80.4688 331.25C80.7812 319.583 81.9271 309.115 83.9062 299.844C85.9896 290.573 89.2188 282.5 93.5938 275.625C98.0729 268.75 104.375 263.073 112.5 258.594C120.625 254.01 130.938 250.625 143.438 248.438C156.042 246.146 171.51 245 189.844 245H270.156C285.156 245 298.281 245.729 309.531 247.188C320.781 248.542 330.469 250.677 338.594 253.594C346.719 256.406 353.438 260 358.75 264.375C364.167 268.75 368.438 273.906 371.562 279.844C374.792 285.781 377.031 292.5 378.281 300C379.531 307.5 380.156 315.833 380.156 325H350.156ZM620.469 245C638.802 245 654.219 246.146 666.719 248.438C679.323 250.625 689.688 254.01 697.812 258.594C705.938 263.073 712.188 268.75 716.562 275.625C720.938 282.5 724.115 290.573 726.094 299.844C728.177 309.115 729.375 319.583 729.688 331.25C730.104 342.917 730.312 355.833 730.312 370C730.312 384.167 730.104 397.083 729.688 408.75C729.375 420.417 728.177 430.885 726.094 440.156C724.115 449.427 720.938 457.5 716.562 464.375C712.188 471.25 705.938 476.979 697.812 481.562C689.688 486.042 679.323 489.375 666.719 491.562C654.219 493.854 638.802 495 620.469 495H530.156C511.823 495 496.354 493.854 483.75 491.562C471.25 489.375 460.938 486.042 452.812 481.562C444.688 476.979 438.385 471.25 433.906 464.375C429.531 457.5 426.302 449.427 424.219 440.156C422.24 430.885 421.094 420.417 420.781 408.75C420.469 397.083 420.312 384.167 420.312 370C420.312 355.833 420.469 342.917 420.781 331.25C421.094 319.583 422.24 309.115 424.219 299.844C426.302 290.573 429.531 282.5 433.906 275.625C438.385 268.75 444.688 263.073 452.812 258.594C460.938 254.01 471.25 250.625 483.75 248.438C496.354 246.146 511.823 245 530.156 245H620.469ZM620.469 470C633.698 470 644.844 469.635 653.906 468.906C663.073 468.073 670.625 466.458 676.562 464.062C682.5 461.667 687.083 458.229 690.312 453.75C693.542 449.271 695.885 443.333 697.344 435.938C698.802 428.542 699.635 419.479 699.844 408.75C700.156 397.917 700.312 385 700.312 370C700.312 355 700.156 342.135 699.844 331.406C699.635 320.573 698.802 311.458 697.344 304.062C695.885 296.667 693.542 290.729 690.312 286.25C687.083 281.771 682.5 278.333 676.562 275.938C670.729 273.542 663.229 271.979 654.062 271.25C645 270.417 633.802 270 620.469 270H530.156C516.823 270 505.573 270.417 496.406 271.25C487.344 271.979 479.844 273.542 473.906 275.938C467.969 278.333 463.385 281.771 460.156 286.25C456.927 290.729 454.583 296.667 453.125 304.062C451.667 311.458 450.833 320.573 450.625 331.406C450.417 342.135 450.312 355 450.312 370C450.312 385 450.417 397.917 450.625 408.75C450.938 419.479 451.823 428.542 453.281 435.938C454.74 443.333 457.031 449.271 460.156 453.75C463.385 458.229 467.969 461.667 473.906 464.062C479.844 466.458 487.344 468.073 496.406 468.906C505.573 469.635 516.823 470 530.156 470H620.469ZM780.312 490V250H810.312V465H1000.31V490H780.312ZM1220.16 465C1233.39 465 1244.58 464.635 1253.75 463.906C1262.92 463.177 1270.47 461.719 1276.41 459.531C1282.34 457.24 1286.93 453.958 1290.16 449.688C1293.39 445.417 1295.73 439.792 1297.19 432.812C1298.75 425.729 1299.64 417.083 1299.84 406.875C1300.16 396.562 1300.31 384.271 1300.31 370C1300.31 355.729 1300.16 343.49 1299.84 333.281C1299.64 322.969 1298.75 314.323 1297.19 307.344C1295.73 300.26 1293.39 294.583 1290.16 290.312C1286.93 286.042 1282.34 282.812 1276.41 280.625C1270.47 278.333 1262.92 276.823 1253.75 276.094C1244.69 275.365 1233.49 275 1220.16 275H1070.31V465H1220.16ZM1040.31 490V250H1220.16C1238.49 250 1253.91 251.094 1266.41 253.281C1279.01 255.365 1289.38 258.594 1297.5 262.969C1305.73 267.344 1312.03 272.812 1316.41 279.375C1320.89 285.938 1324.11 293.698 1326.09 302.656C1328.18 311.51 1329.38 321.562 1329.69 332.812C1330.1 343.958 1330.31 356.354 1330.31 370C1330.31 383.646 1330.1 396.094 1329.69 407.344C1329.38 418.49 1328.18 428.542 1326.09 437.5C1324.11 446.354 1320.89 454.062 1316.41 460.625C1312.03 467.188 1305.73 472.656 1297.5 477.031C1289.38 481.406 1279.01 484.688 1266.41 486.875C1253.91 488.958 1238.49 490 1220.16 490H1040.31Z" fill="white"/>
<path d="M2106 480H2076V435C2076 427.708 2075.84 421.458 2075.53 416.25C2075.32 410.938 2074.44 406.406 2072.88 402.656C2071.42 398.906 2069.07 395.885 2065.84 393.594C2062.61 391.302 2058.03 389.531 2052.09 388.281C2046.16 387.031 2038.6 386.198 2029.44 385.781C2020.38 385.26 2009.18 385 1995.84 385H1861V480H1831V240H2000.84C2019.18 240 2034.59 240.677 2047.09 242.031C2059.7 243.281 2070.06 245.208 2078.19 247.812C2086.42 250.417 2092.72 253.646 2097.09 257.5C2101.57 261.354 2104.8 265.885 2106.78 271.094C2108.86 276.302 2110.06 282.135 2110.38 288.594C2110.79 295.052 2111 302.188 2111 310C2111 320 2110.27 328.802 2108.81 336.406C2107.46 343.906 2105.11 350.312 2101.78 355.625C2098.45 360.938 2094.02 365.208 2088.5 368.438C2082.98 371.562 2076.05 373.75 2067.72 375C2076.05 376.25 2082.72 378.438 2087.72 381.562C2092.72 384.688 2096.57 388.75 2099.28 393.75C2101.99 398.75 2103.76 404.688 2104.59 411.562C2105.53 418.438 2106 426.25 2106 435V480ZM1861 360H2000.84C2014.18 360 2025.38 359.792 2034.44 359.375C2043.6 358.854 2051.16 357.969 2057.09 356.719C2063.03 355.469 2067.61 353.698 2070.84 351.406C2074.07 349.115 2076.42 346.094 2077.88 342.344C2079.44 338.594 2080.32 334.115 2080.53 328.906C2080.84 323.594 2081 317.292 2081 310C2081 303.229 2080.84 297.396 2080.53 292.5C2080.32 287.604 2079.44 283.49 2077.88 280.156C2076.42 276.823 2074.07 274.167 2070.84 272.188C2067.61 270.208 2063.03 268.698 2057.09 267.656C2051.16 266.51 2043.6 265.781 2034.44 265.469C2025.38 265.156 2014.18 265 2000.84 265H1861V360ZM2161 480V240H2361.16C2376.16 240 2388.24 241.25 2397.41 243.75C2406.57 246.146 2413.6 249.74 2418.5 254.531C2423.5 259.219 2426.83 265.104 2428.5 272.188C2430.17 279.271 2431 287.396 2431 296.562C2431 303.229 2430.43 309.115 2429.28 314.219C2428.14 319.323 2426.62 323.75 2424.75 327.5C2422.88 331.25 2420.74 334.427 2418.34 337.031C2415.95 339.531 2413.5 341.615 2411 343.281C2405.17 347.24 2398.5 349.479 2391 350C2400.38 350.521 2408.71 352.812 2416 356.875C2419.12 358.646 2422.15 360.885 2425.06 363.594C2428.08 366.198 2430.74 369.479 2433.03 373.438C2435.43 377.292 2437.35 381.875 2438.81 387.188C2440.27 392.396 2441 398.438 2441 405.312C2441 413.646 2440.58 421.302 2439.75 428.281C2439.02 435.156 2437.46 441.354 2435.06 446.875C2432.67 452.396 2429.23 457.24 2424.75 461.406C2420.27 465.573 2414.28 469.062 2406.78 471.875C2399.39 474.583 2390.27 476.615 2379.44 477.969C2368.71 479.323 2355.84 480 2340.84 480H2161ZM2330.84 455C2342.51 455 2352.61 454.844 2361.16 454.531C2369.7 454.115 2376.94 453.333 2382.88 452.188C2388.81 450.938 2393.6 449.219 2397.25 447.031C2400.9 444.74 2403.71 441.771 2405.69 438.125C2407.77 434.375 2409.18 429.844 2409.91 424.531C2410.64 419.219 2411 412.812 2411 405.312C2411 399.479 2410.64 394.427 2409.91 390.156C2409.18 385.781 2407.77 382.135 2405.69 379.219C2403.71 376.198 2400.9 373.802 2397.25 372.031C2393.6 370.156 2388.81 368.698 2382.88 367.656C2376.94 366.615 2369.7 365.938 2361.16 365.625C2352.61 365.208 2342.51 365 2330.84 365H2191V455H2330.84ZM2330.84 340C2341.05 340 2349.85 339.792 2357.25 339.375C2364.65 338.958 2370.95 338.177 2376.16 337.031C2381.36 335.885 2385.58 334.323 2388.81 332.344C2392.04 330.26 2394.54 327.604 2396.31 324.375C2398.19 321.146 2399.44 317.292 2400.06 312.812C2400.69 308.229 2401 302.812 2401 296.562C2401 289.896 2400.27 284.479 2398.81 280.312C2397.35 276.146 2394.75 272.969 2391 270.781C2387.25 268.49 2382.15 266.979 2375.69 266.25C2369.33 265.417 2361.16 265 2351.16 265H2191V340H2330.84ZM2491 240H2521V480H2491V240ZM2841 240V265H2721V480H2691V265H2571V240H2841Z" fill="white"/>
<mask id="path-3-inside-1" fill="white">
<path d="M1381 359.999C1381 249.542 1470.54 160 1581 160C1630.12 160 1675.13 177.724 1709.95 207.118C1680.62 186.664 1644.41 174.842 1605.53 173.559C1502.31 170.152 1417.98 256.779 1418.08 359.999C1418.18 463.115 1502.42 549.467 1605.53 546.064C1645.42 544.747 1682.48 532.379 1712.19 510.974C1677.07 541.508 1631.19 560 1581 560C1470.51 559.999 1381 470.456 1381 359.999Z"/>
</mask>
<path d="M1381 359.999C1381 249.542 1470.54 160 1581 160C1630.12 160 1675.13 177.724 1709.95 207.118C1680.62 186.664 1644.41 174.842 1605.53 173.559C1502.31 170.152 1417.98 256.779 1418.08 359.999C1418.18 463.115 1502.42 549.467 1605.53 546.064C1645.42 544.747 1682.48 532.379 1712.19 510.974C1677.07 541.508 1631.19 560 1581 560C1470.51 559.999 1381 470.456 1381 359.999Z" fill="white"/>
<path d="M1781 359.999L1749 360.016L1749 359.999L1749 359.982L1781 359.999ZM1730.59 182.665C1780.95 225.178 1813.04 288.879 1813 360.016L1749 359.982C1749.03 308.524 1725.89 262.452 1689.31 231.571L1730.59 182.665ZM1813 359.982C1813.04 429.89 1782.06 492.627 1733.18 535.122L1691.19 486.825C1726.69 455.964 1749.03 410.596 1749 360.016L1813 359.982ZM1581 560L1581 624L1581 560ZM1605.53 173.559L1607.64 109.593L1607.64 109.593L1605.53 173.559ZM1418.08 359.999L1354.08 360.063L1418.08 359.999ZM1605.53 546.064L1603.42 482.099L1605.53 546.064ZM1709.95 207.118L1751.23 158.212L1673.34 259.613L1709.95 207.118ZM1712.19 510.974L1674.78 459.046L1754.18 559.271L1712.19 510.974ZM1581 224C1505.89 224 1445 284.888 1445 359.999H1317C1317 214.195 1435.2 96 1581 96V224ZM1445 359.999C1445 435.117 1505.87 496 1581 496L1581 624C1435.16 623.999 1317 505.795 1317 359.999H1445ZM1603.42 237.524C1538.61 235.385 1482.01 290.642 1482.08 359.934L1354.08 360.063C1353.94 222.917 1466.01 104.919 1607.64 109.593L1603.42 237.524ZM1482.08 359.934C1482.15 429.173 1538.66 484.236 1603.42 482.099L1607.64 610.029C1466.17 614.699 1354.22 497.057 1354.08 360.063L1482.08 359.934ZM1749.6 562.902C1708.88 592.232 1659.35 608.322 1607.64 610.029L1603.42 482.099C1631.48 481.172 1656.07 472.526 1674.78 459.046L1749.6 562.902ZM1607.64 109.593C1658.1 111.259 1706.45 126.65 1746.56 154.622L1673.34 259.613C1654.79 246.679 1630.73 238.425 1603.42 237.524L1607.64 109.593ZM1581 496C1615.18 496 1646.28 483.474 1670.2 462.677L1754.18 559.271C1707.86 599.541 1647.21 624 1581 624L1581 496ZM1668.67 256.024C1644.95 236.006 1614.45 224 1581 224V96C1645.8 96 1705.3 119.441 1751.23 158.212L1668.67 256.024Z" fill="#FFB800" mask="url(#path-3-inside-1)"/>
<mask id="path-5-inside-2" fill="white">
<path d="M1781 360.001C1781 454.442 1704.89 531 1611 531C1569.24 531 1530.99 515.846 1501.39 490.714C1526.32 508.202 1557.1 518.31 1590.15 519.407C1677.88 522.32 1749.57 448.254 1749.48 360.001C1749.39 271.836 1677.8 198.005 1590.15 200.915C1556.25 202.041 1524.75 212.616 1499.49 230.917C1529.34 204.811 1568.34 189 1611 189C1704.91 189.001 1781 265.56 1781 360.001Z"/>
</mask>
<path d="M1781 360.001C1781 454.442 1704.89 531 1611 531C1569.24 531 1530.99 515.846 1501.39 490.714C1526.32 508.202 1557.1 518.31 1590.15 519.407C1677.88 522.32 1749.57 448.254 1749.48 360.001C1749.39 271.836 1677.8 198.005 1590.15 200.915C1556.25 202.041 1524.75 212.616 1499.49 230.917C1529.34 204.811 1568.34 189 1611 189C1704.91 189.001 1781 265.56 1781 360.001Z" fill="white"/>
<path d="M1441 360.001L1473 359.984L1473 360.001L1473 360.018L1441 360.001ZM1480.68 515.107C1436.85 477.891 1408.97 422.162 1409 359.984L1473 360.018C1472.98 402.658 1492.03 440.786 1522.11 466.321L1480.68 515.107ZM1409 360.018C1408.97 298.914 1435.89 244.03 1478.42 206.83L1520.56 255.005C1491.38 280.524 1472.98 318.07 1473 359.984L1409 360.018ZM1611 189L1611 125L1611 189ZM1590.15 519.407L1588.02 583.372L1588.02 583.372L1590.15 519.407ZM1749.48 360.001L1813.48 359.937L1749.48 360.001ZM1590.15 200.915L1592.27 264.88L1590.15 200.915ZM1501.39 490.714L1459.97 539.501L1538.15 438.32L1501.39 490.714ZM1499.49 230.917L1537.04 282.741L1457.36 182.742L1499.49 230.917ZM1611 467C1669.19 467 1717 419.45 1717 360.001L1845 360.001C1845 489.434 1740.59 595 1611 595V467ZM1717 360.001C1717 300.545 1669.21 253 1611 253L1611 125C1740.62 125.001 1845 230.575 1845 360.001L1717 360.001ZM1592.27 455.443C1641.23 457.068 1685.54 414.766 1685.48 360.065L1813.48 359.937C1813.6 481.742 1714.54 587.572 1588.02 583.372L1592.27 455.443ZM1685.48 360.065C1685.43 305.405 1641.19 263.256 1592.27 264.88L1588.02 136.951C1714.4 132.755 1813.36 238.268 1813.48 359.937L1685.48 360.065ZM1461.94 179.094C1498.2 152.817 1542.22 138.471 1588.02 136.951L1592.27 264.88C1570.27 265.611 1551.29 272.416 1537.04 282.741L1461.94 179.094ZM1588.02 583.372C1543.33 581.888 1500.36 568.165 1464.64 543.109L1538.15 438.32C1552.29 448.239 1570.87 454.732 1592.27 455.443L1588.02 583.372ZM1611 253C1584.46 253 1560.29 262.766 1541.62 279.092L1457.36 182.742C1498.39 146.856 1552.21 125 1611 125L1611 253ZM1542.82 441.928C1561.32 457.639 1585.03 467 1611 467V595C1553.46 595 1500.67 574.053 1459.97 539.501L1542.82 441.928Z" fill="#FFB800" mask="url(#path-5-inside-2)"/>
</svg>
